<svg width="30" height="30" viewBox="0 0 30 30" fill="none" xmlns="http://www.w3.org/2000/svg">
<mask id="path-1-inside-1_72442_3" fill="white">
<path d="M0 7C0 3.13401 3.13401 0 7 0H23C26.866 0 30 3.13401 30 7V23C30 26.866 26.866 30 23 30H7C3.13401 30 0 26.866 0 23V7Z"/>
<path d="M21.1734 11.4592C20.9639 10.9779 20.6619 10.5418 20.2842 10.1753C19.9063 9.80769 19.4606 9.51555 18.9716 9.31477C18.4644 9.10575 17.9205 8.99876 17.3714 9.00001C16.601 9.00001 15.8493 9.20933 15.1961 9.60472C15.0399 9.6993 14.8914 9.80319 14.7508 9.91638C14.6101 9.80319 14.4617 9.6993 14.3054 9.60472C13.6522 9.20933 12.9006 9.00001 12.1302 9.00001C11.5754 9.00001 11.0378 9.10545 10.53 9.31477C10.0393 9.51634 9.59706 9.80629 9.21733 10.1753C8.83915 10.5414 8.53706 10.9776 8.32816 11.4592C8.11095 11.96 8 12.4918 8 13.0392C8 13.5555 8.10626 14.0935 8.31722 14.6409C8.49381 15.0983 8.74696 15.5727 9.07044 16.0518C9.58299 16.8101 10.2878 17.6008 11.1629 18.4025C12.613 19.7313 14.0491 20.6492 14.1101 20.6864L14.4804 20.9221C14.6445 21.026 14.8555 21.026 15.0196 20.9221L15.3899 20.6864C15.4509 20.6476 16.8854 19.7313 18.3371 18.4025C19.2122 17.6008 19.917 16.8101 20.4295 16.0518C20.753 15.5727 21.0077 15.0983 21.1828 14.6409C21.3937 14.0935 21.5 13.5555 21.5 13.0392C21.5015 12.4918 21.3906 11.96 21.1734 11.4592Z"/>
</mask>
<path d="M21.1734 11.4592L22.0908 11.0613L22.0903 11.0601L21.1734 11.4592ZM20.2842 10.1753L19.587 10.8922L19.5878 10.8929L20.2842 10.1753ZM18.9716 9.31477L18.5905 10.2393L18.5918 10.2398L18.9716 9.31477ZM17.3714 9.00001L17.3714 10L17.3737 10L17.3714 9.00001ZM15.1961 9.60472L15.7139 10.4602L15.714 10.4602L15.1961 9.60472ZM14.7508 9.91638L14.1238 10.6954L14.7508 11.2L15.3777 10.6954L14.7508 9.91638ZM14.3054 9.60472L13.7876 10.4602L13.7876 10.4602L14.3054 9.60472ZM10.53 9.31477L10.91 10.2398L10.911 10.2393L10.53 9.31477ZM9.21733 10.1753L9.91289 10.8938L9.91425 10.8925L9.21733 10.1753ZM8.32816 11.4592L7.41077 11.0612L7.41073 11.0613L8.32816 11.4592ZM8.31722 14.6409L7.38413 15.0005L7.38433 15.001L8.31722 14.6409ZM9.07044 16.0518L8.24164 16.6114L8.24197 16.6119L9.07044 16.0518ZM11.1629 18.4025L11.8384 17.6652L11.8383 17.6651L11.1629 18.4025ZM14.1101 20.6864L14.647 19.8427L14.6391 19.8378L14.6312 19.8329L14.1101 20.6864ZM14.4804 20.9221L13.9436 21.7657L13.9455 21.767L14.4804 20.9221ZM15.0196 20.9221L15.5545 21.767L15.5564 21.7657L15.0196 20.9221ZM15.3899 20.6864L14.8532 19.8426L14.853 19.8427L15.3899 20.6864ZM18.3371 18.4025L19.0123 19.1401L19.0126 19.1398L18.3371 18.4025ZM20.4295 16.0518L21.258 16.6119L21.2583 16.6114L20.4295 16.0518ZM21.1828 14.6409L20.2497 14.2812L20.2488 14.2835L21.1828 14.6409ZM21.5 13.0392L20.5 13.0363V13.0392H21.5ZM7 1H23V-1H7V1ZM29 7V23H31V7H29ZM23 29H7V31H23V29ZM1 23V7H-1V23H1ZM7 29C3.68629 29 1 26.3137 1 23H-1C-1 27.4183 2.58172 31 7 31V29ZM29 23C29 26.3137 26.3137 29 23 29V31C27.4183 31 31 27.4183 31 23H29ZM23 1C26.3137 1 29 3.68629 29 7H31C31 2.58172 27.4183 -1 23 -1V1ZM7 -1C2.58172 -1 -1 2.58172 -1 7H1C1 3.68629 3.68629 1 7 1V-1ZM22.0903 11.0601C21.8287 10.459 21.4516 9.91476 20.9807 9.4577L19.5878 10.8929C19.8722 11.1689 20.0992 11.4969 20.2565 11.8583L22.0903 11.0601ZM20.9815 9.45847C20.5117 9.00156 19.9582 8.63884 19.3514 8.38969L18.5918 10.2398C18.963 10.3923 19.3008 10.6138 19.587 10.8922L20.9815 9.45847ZM19.3526 8.39022C18.7238 8.13103 18.0496 7.99846 17.3691 8.00001L17.3737 10C17.7915 9.99905 18.2051 10.0805 18.5905 10.2393L19.3526 8.39022ZM17.3714 8.00001C16.4197 8.00001 15.4887 8.25867 14.6783 8.74924L15.714 10.4602C16.2099 10.16 16.7823 10 17.3714 10V8.00001ZM14.6783 8.74922C14.4845 8.86656 14.2995 8.99594 14.1238 9.13734L15.3777 10.6954C15.4833 10.6104 15.5953 10.532 15.7139 10.4602L14.6783 8.74922ZM15.3777 9.13734C15.2021 8.99594 15.0171 8.86656 14.8232 8.74922L13.7876 10.4602C13.9063 10.532 14.0182 10.6104 14.1238 10.6954L15.3777 9.13734ZM14.8232 8.74924C14.0128 8.25867 13.0819 8.00001 12.1302 8.00001V10C12.7192 10 13.2916 10.16 13.7876 10.4602L14.8232 8.74924ZM12.1302 8.00001C11.4466 8.00001 10.7794 8.13037 10.1489 8.39022L10.911 10.2393C11.2963 10.0805 11.7043 10 12.1302 10V8.00001ZM10.15 8.38978C9.54156 8.63972 8.9917 9.00016 8.5204 9.45818L9.91425 10.8925C10.2024 10.6124 10.537 10.393 10.91 10.2398L10.15 8.38978ZM8.52177 9.45685C8.04961 9.91395 7.67202 10.459 7.41077 11.0612L9.24556 11.8571C9.4021 11.4963 9.62869 11.1689 9.91289 10.8938L8.52177 9.45685ZM7.41073 11.0613C7.13927 11.6872 7 12.3544 7 13.0392H9C9 12.6292 9.08263 12.2328 9.24559 11.8571L7.41073 11.0613ZM7 13.0392C7 13.6935 7.1347 14.3533 7.38413 15.0005L9.25031 14.2812C9.07782 13.8337 9 13.4175 9 13.0392H7ZM7.38433 15.001C7.59224 15.5396 7.88322 16.0805 8.24164 16.6114L9.89923 15.4923C9.6107 15.0649 9.39537 14.657 9.25012 14.2807L7.38433 15.001ZM8.24197 16.6119C8.80942 17.4513 9.57109 18.3005 10.4874 19.1398L11.8383 17.6651C11.0044 16.9012 10.3566 16.1688 9.8989 15.4918L8.24197 16.6119ZM10.4873 19.1397C11.998 20.524 13.4902 21.4796 13.5889 21.5399L14.6312 19.8329C14.6355 19.8356 14.5492 19.7813 14.3876 19.6721C14.2307 19.5661 14.0103 19.4134 13.7473 19.2213C13.2197 18.8359 12.5288 18.2978 11.8384 17.6652L10.4873 19.1397ZM13.5732 21.5301L13.9436 21.7657L15.0173 20.0784L14.647 19.8427L13.5732 21.5301ZM13.9455 21.767C14.4362 22.0777 15.0638 22.0777 15.5545 21.767L14.4846 20.0772C14.6472 19.9743 14.8528 19.9743 15.0154 20.0772L13.9455 21.767ZM15.5564 21.7657L15.9268 21.5301L14.853 19.8427L14.4827 20.0784L15.5564 21.7657ZM15.9266 21.5302C16.0073 21.4789 17.4978 20.5263 19.0123 19.1401L17.6619 17.6648C16.2729 18.9362 14.8944 19.8164 14.8532 19.8426L15.9266 21.5302ZM19.0126 19.1398C19.9289 18.3005 20.6906 17.4513 21.258 16.6119L19.6011 15.4918C19.1434 16.1688 18.4955 16.9012 17.6616 17.6651L19.0126 19.1398ZM21.2583 16.6114C21.6156 16.0823 21.9093 15.5403 22.1167 14.9982L20.2488 14.2835C20.1062 14.6563 19.8905 15.0632 19.6008 15.4923L21.2583 16.6114ZM22.1159 15.0005C22.3653 14.3534 22.5 13.6935 22.5 13.0392H20.5C20.5 13.4175 20.4222 13.8337 20.2497 14.2812L22.1159 15.0005ZM22.5 13.042C22.5019 12.3553 22.3623 11.6872 22.0908 11.0613L20.256 11.8571C20.4189 12.2328 20.5012 12.6283 20.5 13.0363L22.5 13.042Z" fill="#ECECEC" mask="url(#path-1-inside-1_72442_3)"/>
</svg>
